<?xml version="1.0" encoding="UTF-8" standalone="no"?>
<!-- Created with Inkscape (http://www.inkscape.org/) -->

<svg
   width="512"
   height="512"
   viewBox="0 0 512 512"
   version="1.1"
   id="svg5"
   inkscape:version="1.1.1 (3bf5ae0d25, 2021-09-20)"
   sodipodi:docname="M-for-Moscow.svg"
   xmlns:inkscape="http://www.inkscape.org/namespaces/inkscape"
   xmlns:sodipodi="http://sodipodi.sourceforge.net/DTD/sodipodi-0.dtd"
   xmlns="http://www.w3.org/2000/svg"
   xmlns:svg="http://www.w3.org/2000/svg">
  <sodipodi:namedview
     id="namedview7"
     pagecolor="#505050"
     bordercolor="#eeeeee"
     borderopacity="1"
     inkscape:pageshadow="0"
     inkscape:pageopacity="0"
     inkscape:pagecheckerboard="0"
     inkscape:document-units="px"
     showgrid="false"
     inkscape:snap-nodes="false"
     inkscape:snap-others="false"
     inkscape:snap-bbox="false"
     inkscape:snap-global="false"
     inkscape:zoom="1"
     inkscape:cx="643.5"
     inkscape:cy="228.5"
     inkscape:window-width="1600"
     inkscape:window-height="832"
     inkscape:window-x="0"
     inkscape:window-y="0"
     inkscape:window-maximized="1"
     inkscape:current-layer="layer1" />
  <defs
     id="defs2">
    <rect
       x="2.6450158"
       y="3.4741817"
       width="677.153"
       height="700.07353"
       id="rect65049" />
    <rect
       x="10.643664"
       y="16.868683"
       width="492.85404"
       height="487.23449"
       id="rect39567" />
  </defs>
  <g
     inkscape:label="Layer 1"
     inkscape:groupmode="layer"
     id="layer1">
    <text
       xml:space="preserve"
       id="text39565"
       style="fill:black;fill-opacity:1;line-height:1.25;stroke:none;font-family:sans-serif;font-style:normal;font-weight:normal;font-size:40px;white-space:pre;shape-inside:url(#rect39567)" />
    <g
       aria-label="m"
       transform="translate(47.705444,9.5890597)"
       id="text65047"
       style="font-style:italic;font-size:600px;font-family:serif;-inkscape-font-specification:'serif Italic';letter-spacing:0px;white-space:pre;fill-rule:evenodd">
      <path
         d="m 395.7663,325.78784 c -10.2,12 -15.54447,18.68849 -16.14447,19.28849 -13.2,14.4 -19.2,18.6 -27.6,18.6 -4.8,0 -7.2,-3 -7.2,-9.6 0,-2.4 2.4,-12.6 6,-27 l 40.8,-150.6 c 0.6,-3 1.8,-12.6 1.8,-16.8 0,-21.6 -15,-37.8 -34.8,-37.8 -12,0 -24,4.2 -38.4,13.2 -29.4,19.2 -41.5773,44.79827 -82.9773,110.79827 15.6,-46.8 24,-79.8 24,-91.2 0,-21.6 -13.8,-36 -34.2,-36 -36.6,0 -78.6,39.6 -133.799999,126.6 20.149649,-74.97609 -13.234923,-159.46677 -73.333859,-96.56755 79.376457,-26.19206 47.242964,120.99618 37.030633,160.74364 -13.2,45.6 -16.024075,71.79195 -47.0967738,73.82391 52.6381858,9.83464 72.8033198,-101.72377 103.1999988,-148.8 34.2,-51.6 69.6,-84.6 90,-84.6 7.8,0 12,5.4 12,15 -48.51344,302.71394 -90.53511,256.02731 42.1773,55.40173 29.4,-40.8 59.4,-67.2 76.8,-67.2 6.6,0 12,5.4 12,12.6 0,3 -1.2,9 -4.2,21 l -34.8,138 c -6,23.4 -7.8,33.6 -7.8,39.6 0,18 8.4,27.6 24,27.6 49.01867,5.23666 72.54447,-66.08849 72.54447,-66.08849 z"
         id="path132281"
         sodipodi:nodetypes="ccssccssccsscccccsccssccscc" />
    </g>
  </g>
</svg>
