<?xml version="1.0" encoding="UTF-8" standalone="no"?>
<!-- Created with Inkscape (http://www.inkscape.org/) -->

<svg
   width="499.9422"
   height="86.90802"
   viewBox="0 0 499.9422 86.90802"
   version="1.1"
   id="SVGRoot"
   sodipodi:docname="LONDON.svg"
   inkscape:version="1.1.1 (3bf5ae0d25, 2021-09-20)"
   xmlns:inkscape="http://www.inkscape.org/namespaces/inkscape"
   xmlns:sodipodi="http://sodipodi.sourceforge.net/DTD/sodipodi-0.dtd"
   xmlns="http://www.w3.org/2000/svg"
   xmlns:svg="http://www.w3.org/2000/svg">
  <sodipodi:namedview
     id="namedview374"
     pagecolor="#505050"
     bordercolor="#eeeeee"
     borderopacity="1"
     inkscape:pageshadow="0"
     inkscape:pageopacity="0"
     inkscape:pagecheckerboard="0"
     inkscape:document-units="px"
     showgrid="true"
     inkscape:zoom="1"
     inkscape:cx="241"
     inkscape:cy="187.5"
     inkscape:window-width="1600"
     inkscape:window-height="832"
     inkscape:window-x="0"
     inkscape:window-y="0"
     inkscape:window-maximized="1"
     inkscape:current-layer="layer1"
     inkscape:lockguides="true">
    <inkscape:grid
       type="xygrid"
       id="grid380"
       originx="-4.9999995"
       originy="-38.067506" />
  </sodipodi:namedview>
  <defs
     id="defs369">
    <rect
       x="10"
       y="30"
       width="420"
       height="90"
       id="rect16995" />
  </defs>
  <g
     inkscape:label="Layer 1"
     inkscape:groupmode="layer"
     id="layer1"
     transform="translate(-4.9999995,-38.067506)">
    <g
       aria-label="L O N D O N"
       transform="matrix(1.2600698,0,0,1.2600698,-14.992399,-9.9865158)"
       id="text16993"
       style="font-size:72px;white-space:pre">
      <path
         d="m 23.008566,38.876034 h -7.142462 v 52.37805 l 34.918701,10e-7 V 83.318016 H 23.008566 Z"
         id="path33792"
         sodipodi:nodetypes="ccccccc" />
      <path
         d="m 98.055974,38.136 c -15.048,0 -25.272,11.088 -25.272,27.504 0,16.488 25.344,64.02237 25.344,27.504 0,-6.651557 11.383736,6.839759 16.938986,-13.794018 5.55525,11.110496 8.40501,-4.709982 8.40501,-13.277982 0,-16.92 -10.008,-27.936 -25.415996,-27.936 z m 0,5.904 c 11.375996,0 18.719996,8.568 18.719996,21.888 0,12.672 -7.56,21.312 -18.647996,21.312 -11.232,0 -18.648,-8.64 -18.648,-21.6 0,-12.96 7.416,-21.6 18.576,-21.6 z"
         id="path33794"
         sodipodi:nodetypes="ssscsssssss" />
      <path
         d="m 192.59196,39 h -6.336 V 81.912 L 158.82396,39 h -7.272 v 52.488 h 6.336 V 48.936 l 27.144,42.552 h 7.56 z"
         id="path33796"
         sodipodi:nodetypes="ccccccccccc" />
      <path
         d="m 224.48782,91.488 h 20.232 c 13.248,0 21.384,-9.936 21.384,-26.28 0,-16.272 -8.064,-26.208 -21.384,-26.208 h -20.232 z m 6.696,-5.904 v -40.68 h 12.384 c 10.368,0 15.84,6.984 15.84,20.376 0,13.32 -5.472,20.304 -15.84,20.304 z"
         id="path33798" />
      <path
         d="m 318.08768,38.136 c -15.048,0 -25.42174,11.088683 -25.272,27.504 0.81282,89.10263 17.30765,3.084067 25.344,27.504 7.21309,21.91829 15.14916,6.046153 16.272,-5.544 6.81322,39.36639 9.072,-12.96 9.072,-21.528 0,-16.92 -10.008,-27.936 -25.416,-27.936 z m 0,5.904 c 11.376,0 18.72,8.568 18.72,21.888 0,12.672 -7.56,21.312 -18.648,21.312 -11.232,0 -18.648,-8.64 -18.648,-21.6 0,-12.96 7.416,-21.6 18.576,-21.6 z"
         id="path33800"
         sodipodi:nodetypes="ssscsssssss" />
      <path
         d="m 412.62366,39 h -6.336 V 81.912 L 378.85566,39 h -7.272 v 52.488 h 6.336 V 48.936 l 27.144,42.552 h 7.56 z"
         id="path33802" />
    </g>
    <circle
       id="path35712"
       style="fill:#000000;stroke:none"
       cx="90"
       cy="95"
       r="1.5" />
    <circle
       id="path35714"
       style="fill:#000000;stroke:none"
       cx="90"
       cy="50"
       r="1.5" />
    <circle
       style="fill:#000000;fill-rule:evenodd"
       id="path35930"
       cx="110"
       cy="75"
       r="20" />
    <ellipse
       style="fill:#000000;fill-rule:evenodd;stroke-width:1.82675"
       id="path35935"
       cx="109.76222"
       cy="72.519424"
       rx="26.112885"
       ry="28.753122" />
    <ellipse
       style="fill:#000000;fill-rule:evenodd;stroke-width:1.82675"
       id="path35935-3"
       cx="386.30353"
       cy="72.374557"
       rx="26.112885"
       ry="28.753122" />
    <ellipse
       style="fill:#000000;fill-rule:evenodd;stroke-width:1.17278"
       id="path36693"
       cx="290.70758"
       cy="72.614258"
       rx="22.234215"
       ry="32.037834" />
    <path
       style="fill:#000000;fill-rule:evenodd"
       id="path36886"
       d="m 281.39282,48.832029 c 0.10385,-0.506009 0.27543,-0.995946 0.37436,-1.502745 0.029,-0.356264 0.0718,-1.113567 -0.1833,-1.378924 -0.0305,-0.03169 -0.11452,-0.06806 -0.15326,-0.08671 -0.15755,-0.131949 -0.25332,-0.316511 -0.3937,-0.467481 -1.66481,-1.790445 -5.59451,-0.625599 -7.13334,-0.720122 -0.38192,0.489409 -0.69577,1.009439 -0.79539,1.631077 -0.066,0.411826 -0.0341,0.531712 -0.004,0.939153 0.0335,0.141889 0.0555,0.287018 0.10064,0.425668 0.10149,0.312019 0.18456,0.45451 0.37753,0.707715 1.57931,2.072313 2.99283,0.960371 7.16264,1.116679 0.22353,0.0084 0.29795,-0.333704 0.44692,-0.500556 0.46737,-0.672461 0.76204,-1.439829 0.68592,-2.271428 -0.0524,-0.572266 -0.12957,-0.651623 -0.34367,-1.154031 -0.0982,-0.143916 -0.18308,-0.297952 -0.29471,-0.431749 -1.46817,-1.759706 -6.82588,-0.945152 -7.13494,-0.958282 -0.16955,-0.0072 -0.26033,0.221925 -0.36266,0.357305 -0.35865,0.474497 -0.36029,0.672865 -0.53631,1.247995 -0.0197,0.230855 -0.0629,0.460907 -0.059,0.692565 0.014,0.828437 0.36103,1.626715 0.8073,2.309481 0.0951,0.145507 0.20576,0.28023 0.30865,0.420346 0.0934,0.110729 0.18686,0.221458 0.28029,0.332187 0,0 7.03578,-1.959185 7.03578,-1.959185 v 0 c -0.0658,0.0232 -0.13159,0.0464 -0.19739,0.06959 -0.0828,-0.01309 -0.16944,-0.01094 -0.24829,-0.03928 -0.22841,-0.08208 -0.31886,-0.191595 -0.46928,-0.377026 -0.0554,-0.06834 -0.0946,-0.149021 -0.15134,-0.216299 -0.0218,-0.02582 -0.051,-0.07416 -0.0816,-0.06003 -0.0341,0.01571 -0.0174,0.07309 -0.0261,0.109636 -0.0125,0.126689 -0.0497,0.463982 -0.0453,0.589267 0.003,0.08378 0.11993,0.254046 0.0363,0.24887 -13.81799,-0.854855 -7.66488,0.810217 -6.19255,-0.796523 0.0545,-0.05944 0.0989,-0.127351 0.14835,-0.191026 0.0984,-0.133867 0.23344,-0.320945 0.26903,-0.488434 0.0226,-0.106282 -0.20593,-0.239845 -0.13208,-0.338953 -0.27244,-2.435087 -0.16083,-0.517055 6.35426,0.439523 0.27406,0.04024 -0.21732,0.176678 -0.26917,0.224233 -0.0641,0.05877 -0.11444,0.205175 -0.14582,0.281578 -0.0436,0.172221 -0.0956,0.359678 -0.0906,0.539288 0.003,0.09039 0.0648,0.173024 0.0611,0.264314 0.002,0.09456 -0.0167,0.188429 -0.025,0.282644 -2.17777,-0.148045 -4.35763,-0.268072 -6.53332,-0.444134 -0.0394,-0.0032 0.0608,-0.05068 0.0901,-0.07727 0.0236,-0.02139 0.23013,-0.228467 0.25169,-0.228007 0.036,7.68e-4 0.0577,0.04307 0.0865,0.0646 0.0151,0.01679 0.13106,0.153416 0.16629,0.168211 0.0151,0.0063 0.0457,-5.87e-4 0.0462,-0.01698 0.009,-0.333303 -0.0967,-0.675498 -0.006,-1.008473 -0.0649,0.478303 -0.2432,0.93541 -0.35665,1.402564 0,0 7.27536,0.849156 7.27536,0.849156 z" />
    <path
       style="fill:#000000;fill-rule:evenodd"
       id="path36888"
       d="m 280.79635,100.70342 c -0.0261,-1.700827 -0.008,-3.401627 0.0181,-5.102324 0.0187,-1.254721 0.0498,-2.509218 0.11462,-3.76243 0,0 -7.23315,-0.375431 -7.23315,-0.375431 v 0 c 0.0401,1.24675 0.0337,2.4942 -0.004,3.741062 -0.0502,1.678308 -0.0857,3.358713 -0.19475,5.034253 0,0 7.29916,0.46487 7.29916,0.46487 z" />
    <path
       style="fill:#000000;fill-rule:evenodd"
       id="path36890"
       d="m 272.52628,44.484884 c 0.11272,1.102251 0.0825,2.212288 0.17335,3.316407 0.0897,1.09039 0.13375,1.22882 0.30755,2.281039 0.24316,1.09462 0.11578,0.590202 0.37046,1.516155 0,0 7.23599,-0.387121 7.23599,-0.387121 v 0 c -0.31981,-0.686502 -0.16226,-0.297695 -0.44304,-1.177978 -0.19421,-0.906262 -0.25034,-1.029436 -0.32598,-1.985163 -0.0879,-1.110749 -0.0147,-2.224673 -0.0122,-3.336554 0,0 -7.30612,-0.226785 -7.30612,-0.226785 z" />
  </g>
</svg>
